<svg width="99" height="54" viewBox="0 0 99 54" fill="none" xmlns="http://www.w3.org/2000/svg">
<path d="M90.0479 49.9262C89.9675 49.9279 89.8882 49.9066 89.8194 49.8647L83.7735 46.1739C83.6759 46.1099 83.6043 46.0133 83.5714 45.9015C83.5488 45.7903 83.5675 45.6746 83.6241 45.5763L91.621 32.4825C91.6499 32.4318 91.6891 32.3877 91.736 32.3529C91.7828 32.3181 91.8364 32.2934 91.8934 32.2804C92.0045 32.2542 92.1214 32.2732 92.2185 32.3332L98.2645 36.024C98.3143 36.0538 98.3578 36.0932 98.3923 36.1399C98.4268 36.1866 98.4518 36.2396 98.4657 36.296C98.4796 36.3524 98.4821 36.411 98.4732 36.4684C98.4643 36.5258 98.4442 36.5808 98.4139 36.6304L90.417 49.7153C90.3804 49.7806 90.3267 49.8348 90.2617 49.8719C90.1967 49.909 90.1228 49.9278 90.0479 49.9262V49.9262ZM84.6083 45.6554L89.881 48.8893L97.4033 36.5776L92.1306 33.3525L84.6083 45.6554Z" fill="#004646"/>
<path d="M39.9402 19.3888C39.859 19.3869 39.7799 19.3626 39.7117 19.3185L33.6745 15.654C33.6238 15.625 33.5797 15.5859 33.5449 15.539C33.5101 15.4921 33.4854 15.4385 33.4724 15.3816C33.4587 15.3252 33.4563 15.2666 33.4654 15.2093C33.4744 15.152 33.4947 15.0971 33.5251 15.0476L41.5132 1.95388C41.5437 1.90476 41.5836 1.86215 41.6306 1.82848C41.6776 1.79482 41.7309 1.77077 41.7872 1.75771C41.8435 1.74465 41.9019 1.74281 41.9589 1.75235C42.0159 1.76188 42.0705 1.7826 42.1195 1.81328L48.1655 5.49535C48.2146 5.52586 48.2573 5.56577 48.2909 5.61279C48.3246 5.6598 48.3486 5.71299 48.3617 5.76932C48.3748 5.82565 48.3766 5.88403 48.367 5.94107C48.3575 5.9981 48.3368 6.05269 48.3061 6.10171L40.2829 19.1691C40.2472 19.2302 40.1975 19.2819 40.1379 19.3201C40.0784 19.3583 40.0106 19.3818 39.9402 19.3888V19.3888ZM34.5006 15.118L39.7732 18.343L47.3131 5.98746L42.0405 2.75357L34.5006 15.118Z" fill="#004646"/>
<path d="M80.7066 51.6838C80.6254 51.682 80.5463 51.6576 80.4781 51.6135L36.4163 24.723C36.3682 24.6941 36.3263 24.6559 36.2931 24.6106C36.2599 24.5654 36.2361 24.5139 36.223 24.4593C36.2093 24.403 36.2069 24.3444 36.2159 24.2871C36.225 24.2298 36.2453 24.1749 36.2757 24.1254L50.8282 0.213925C50.858 0.164082 50.8974 0.120639 50.9441 0.08611C50.9908 0.0515811 51.0439 0.0266544 51.1003 0.0127625C51.1566 -0.00112945 51.2152 -0.00371364 51.2726 0.00517295C51.33 0.0140595 51.3851 0.0342531 51.4346 0.0645482L95.4876 26.9551C95.5375 26.9849 95.5809 27.0243 95.6154 27.0709C95.65 27.1176 95.6749 27.1707 95.6888 27.2271C95.7027 27.2835 95.7053 27.342 95.6964 27.3994C95.6875 27.4568 95.6673 27.5119 95.637 27.5614L81.0405 51.4817C80.9787 51.5795 80.8808 51.649 80.7681 51.675L80.7066 51.6838ZM37.2511 24.2045L80.566 50.6381L94.7055 27.4736L51.3907 1.03998L37.2511 24.2045Z" fill="#004646"/>
<path d="M74.1861 38.5812C74.0812 38.5808 73.9799 38.5436 73.8996 38.4762C73.8193 38.4088 73.7652 38.3153 73.7467 38.2121L70.1613 15.1882C70.146 15.0732 70.1759 14.9567 70.2448 14.8633C70.3136 14.7699 70.416 14.7068 70.5304 14.6873C70.5875 14.6786 70.6458 14.6812 70.7019 14.695C70.758 14.7089 70.8109 14.7336 70.8574 14.7679C70.9039 14.8022 70.9432 14.8453 70.9731 14.8948C71.0029 14.9443 71.0227 14.9992 71.0313 15.0564L74.5991 38.0715C74.6091 38.1288 74.6074 38.1875 74.594 38.2441C74.5807 38.3007 74.556 38.354 74.5215 38.4008C74.4871 38.4476 74.4435 38.4869 74.3934 38.5164C74.3433 38.5459 74.2877 38.565 74.23 38.5724L74.1861 38.5812Z" fill="#004646"/>
<path d="M75.5833 47.6151C75.479 47.6162 75.3779 47.5794 75.2987 47.5115C75.2195 47.4436 75.1676 47.3493 75.1527 47.2461L74.274 41.7186C74.264 41.6613 74.2657 41.6026 74.2791 41.546C74.2924 41.4894 74.317 41.4361 74.3515 41.3893C74.386 41.3425 74.4296 41.3032 74.4797 41.2737C74.5298 41.2442 74.5854 41.2251 74.6431 41.2177C74.7571 41.1999 74.8737 41.2277 74.9674 41.2951C75.0611 41.3625 75.1246 41.4641 75.144 41.578L76.0227 47.1142C76.0405 47.2283 76.0127 47.3448 75.9453 47.4386C75.8779 47.5323 75.7763 47.5957 75.6624 47.6151H75.5833Z" fill="#004646"/>
<path d="M66.6462 20.874C66.5424 20.8732 66.4422 20.8358 66.3634 20.7682C66.2845 20.7006 66.2322 20.6073 66.2156 20.5049L64.8886 11.9632C64.8786 11.9065 64.88 11.8485 64.8928 11.7924C64.9056 11.7363 64.9295 11.6834 64.9631 11.6367C64.9967 11.59 65.0393 11.5505 65.0884 11.5206C65.1375 11.4906 65.1921 11.4708 65.2489 11.4623C65.363 11.4445 65.4795 11.4723 65.5733 11.5397C65.667 11.6071 65.7304 11.7088 65.7499 11.8226L67.0768 20.3643C67.0855 20.4214 67.0829 20.4797 67.0691 20.5358C67.0552 20.5919 67.0305 20.6448 66.9962 20.6913C66.9619 20.7378 66.9188 20.7771 66.8693 20.807C66.8198 20.8368 66.7649 20.8566 66.7077 20.8652L66.6462 20.874Z" fill="#004646"/>
<path d="M70.2931 44.39C70.1893 44.3893 70.0891 44.3518 70.0103 44.2842C69.9314 44.2167 69.8791 44.1234 69.8625 44.0209L66.7516 23.976C66.7363 23.861 66.7662 23.7445 66.8351 23.6511C66.9039 23.5577 67.0063 23.4946 67.1207 23.4751C67.1779 23.4664 67.2361 23.469 67.2922 23.4829C67.3484 23.4967 67.4012 23.5215 67.4477 23.5558C67.4943 23.59 67.5336 23.6332 67.5634 23.6827C67.5932 23.7322 67.613 23.7871 67.6216 23.8442L70.7325 43.8803C70.7412 43.9374 70.7386 43.9957 70.7248 44.0519C70.7109 44.108 70.6861 44.1608 70.6519 44.2074C70.6176 44.2539 70.5745 44.2932 70.525 44.323C70.4755 44.3529 70.4206 44.3726 70.3634 44.3812L70.2931 44.39Z" fill="#004646"/>
<path d="M63.7462 40.3915C63.6419 40.3926 63.5408 40.3558 63.4616 40.2879C63.3824 40.22 63.3305 40.1257 63.3156 40.0224L58.3505 7.96469C58.3405 7.90806 58.3419 7.84999 58.3547 7.79392C58.3675 7.73784 58.3914 7.6849 58.425 7.63821C58.4585 7.59152 58.5011 7.55204 58.5502 7.52209C58.5993 7.49213 58.6539 7.47229 58.7108 7.46379C58.768 7.45505 58.8263 7.45768 58.8824 7.47151C58.9385 7.48534 58.9913 7.51011 59.0378 7.5444C59.0844 7.57869 59.1237 7.62183 59.1535 7.67133C59.1834 7.72083 59.2031 7.77573 59.2117 7.83288L64.1856 39.8906C64.2009 40.0056 64.171 40.1221 64.1021 40.2156C64.0333 40.309 63.9309 40.372 63.8165 40.3915H63.7462Z" fill="#004646"/>
<path d="M54.9321 17.4116C54.8283 17.4109 54.7281 17.3734 54.6493 17.3058C54.5705 17.2383 54.5181 17.145 54.5015 17.0425L52.5858 4.4321C52.5771 4.3744 52.5799 4.31556 52.594 4.25893C52.6081 4.20231 52.6332 4.14902 52.6679 4.1021C52.7379 4.00734 52.8427 3.94427 52.9592 3.92679C53.0758 3.90931 53.1945 3.93884 53.2892 4.00888C53.384 4.07892 53.4471 4.18373 53.4646 4.30026L55.4154 16.858C55.4254 16.9153 55.4237 16.974 55.4103 17.0305C55.397 17.0871 55.3724 17.1404 55.3379 17.1872C55.3034 17.2341 55.2598 17.2734 55.2097 17.3029C55.1596 17.3324 55.104 17.3514 55.0463 17.3589L54.9321 17.4116Z" fill="#004646"/>
<path d="M57.955 36.8589C57.8507 36.8599 57.7496 36.8231 57.6704 36.7552C57.5912 36.6873 57.5393 36.593 57.5245 36.4898L55.0639 20.6191C55.0552 20.5614 55.058 20.5025 55.0721 20.4459C55.0862 20.3893 55.1113 20.336 55.146 20.2891C55.1807 20.2422 55.2242 20.2025 55.2742 20.1725C55.3242 20.1424 55.3797 20.1225 55.4374 20.1138C55.4951 20.1052 55.5539 20.1079 55.6105 20.122C55.6671 20.1361 55.7204 20.1612 55.7674 20.1959C55.8143 20.2306 55.8539 20.2741 55.884 20.3241C55.9141 20.3741 55.934 20.4296 55.9427 20.4873L58.4032 36.358C58.4185 36.473 58.3886 36.5895 58.3198 36.6829C58.2509 36.7763 58.1486 36.8394 58.0342 36.8589H57.955Z" fill="#004646"/>
<path d="M76.1018 25.8214C75.9852 25.8354 75.8679 25.8025 75.7756 25.73C75.6834 25.6575 75.6237 25.5513 75.6097 25.4348C75.5957 25.3182 75.6286 25.2009 75.7011 25.1086C75.7736 25.0164 75.8798 24.9566 75.9963 24.9427L85.7244 22.5875C85.8385 22.5609 85.9585 22.58 86.0587 22.6408C86.1589 22.7016 86.2313 22.7992 86.2604 22.9127C86.2869 23.0257 86.2675 23.1446 86.2066 23.2434C86.1457 23.3421 86.0481 23.4128 85.9353 23.4399L76.2072 25.7951L76.1018 25.8214Z" fill="#004646"/>
<path d="M77.9384 30.7426C77.8219 30.7566 77.7046 30.7237 77.6123 30.6512C77.52 30.5787 77.4603 30.4725 77.4463 30.3559C77.4323 30.2394 77.4652 30.1221 77.5377 30.0298C77.6102 29.9375 77.7165 29.8778 77.833 29.8638L87.561 27.5087C87.6751 27.482 87.7952 27.5012 87.8954 27.5619C87.9956 27.6227 88.068 27.7203 88.0971 27.8338C88.1235 27.9468 88.1041 28.0657 88.0432 28.1645C87.9823 28.2633 87.8848 28.334 87.7719 28.3611L78.0702 30.725L77.9384 30.7426Z" fill="#004646"/>
<path d="M79.7663 35.6636C79.6677 35.6621 79.5725 35.6275 79.496 35.5653C79.4195 35.5032 79.3662 35.4171 79.3445 35.3209C79.3302 35.2649 79.3273 35.2066 79.336 35.1495C79.3447 35.0923 79.3648 35.0375 79.3951 34.9883C79.4255 34.9391 79.4654 34.8965 79.5126 34.8631C79.5597 34.8296 79.6132 34.806 79.6696 34.7937L89.3977 32.4385C89.5107 32.4121 89.6296 32.4315 89.7284 32.4924C89.8271 32.5533 89.8978 32.6508 89.9249 32.7637C89.9394 32.8191 89.9426 32.8768 89.9344 32.9335C89.9263 32.9902 89.9069 33.0446 89.8775 33.0937C89.848 33.1428 89.8091 33.1856 89.7629 33.2194C89.7167 33.2533 89.6643 33.2776 89.6086 33.291L79.8717 35.6461L79.7663 35.6636Z" fill="#004646"/>
<path d="M41.5572 17.8685C41.4594 17.869 41.3643 17.8362 41.2877 17.7755C41.211 17.7149 41.1573 17.6299 41.1353 17.5346C41.121 17.478 41.118 17.4192 41.1266 17.3614C41.1352 17.3037 41.1552 17.2483 41.1855 17.1984C41.2157 17.1485 41.2557 17.1051 41.3029 17.0708C41.3501 17.0365 41.4037 17.0119 41.4605 16.9985L51.1885 14.6434C51.3051 14.6166 51.4275 14.6372 51.5288 14.7007C51.6302 14.7641 51.7022 14.8652 51.729 14.9817C51.7558 15.0983 51.7352 15.2207 51.6718 15.322C51.6083 15.4234 51.5072 15.4954 51.3907 15.5222L41.6626 17.8773L41.5572 17.8685Z" fill="#004646"/>
<path d="M43.3938 22.7897C43.2953 22.7891 43.1997 22.7561 43.1219 22.6957C43.0441 22.6354 42.9883 22.551 42.9632 22.4558C42.9388 22.3418 42.9589 22.2229 43.0193 22.1232C43.0798 22.0236 43.176 21.9508 43.2883 21.9198L53.0252 19.5646C53.1382 19.5382 53.257 19.5576 53.3558 19.6185C53.4546 19.6794 53.5253 19.7769 53.5524 19.8898C53.5791 20.0039 53.56 20.1239 53.4992 20.2241C53.4384 20.3243 53.3408 20.3967 53.2273 20.4258L43.4992 22.7809L43.3938 22.7897Z" fill="#004646"/>
<path d="M45.2304 27.7108C45.1315 27.7117 45.0352 27.6793 44.9571 27.6187C44.879 27.5581 44.8236 27.4729 44.7998 27.3769C44.7732 27.2628 44.7923 27.1427 44.8531 27.0425C44.9138 26.9423 45.0115 26.8699 45.125 26.8408L54.853 24.4857C54.967 24.4613 55.086 24.4814 55.1856 24.5419C55.2852 24.6023 55.358 24.6985 55.3891 24.8109C55.4157 24.925 55.3966 25.045 55.3358 25.1452C55.2751 25.2454 55.1774 25.3178 55.0639 25.3469L45.3359 27.702L45.2304 27.7108Z" fill="#004646"/>
<path d="M26.0204 53.995C21.6913 54.0978 17.4754 52.606 14.1745 49.8033C11.9129 47.7278 10.3322 45.0166 9.64002 42.0261C6.75183 42.7555 3.7237 42.7222 0.85226 41.9294C0.738447 41.8985 0.641396 41.824 0.582175 41.722C0.522953 41.62 0.506323 41.4988 0.535886 41.3846C0.566738 41.2731 0.640333 41.1782 0.740696 41.1206C0.84106 41.063 0.960105 41.0474 1.07195 41.077C3.79215 41.8516 6.66821 41.897 9.41153 41.2088C8.41563 36.2937 8.78644 31.1997 10.4836 26.4806C12.5048 20.9619 15.9496 17.7631 19.9217 17.6928H20.0711C20.887 17.6491 21.6972 17.8531 22.3951 18.2781C23.093 18.7031 23.646 19.3293 23.9816 20.0743C25.6953 23.6685 23.7531 30.4526 19.5438 35.5056C17.2185 38.4162 14.0987 40.5896 10.5627 41.7625C11.1956 44.5878 12.6692 47.1552 14.7896 49.1266C23.9201 57.0356 39.0966 52.176 48.4819 42.8785C52.5858 38.8098 56.0218 36.9731 58.702 37.4301C59.2874 37.5157 59.8454 37.7346 60.3329 38.0698C60.8204 38.4049 61.2245 38.8475 61.5141 39.3634C61.5481 39.4154 61.5707 39.4741 61.5804 39.5354C61.5901 39.5968 61.5866 39.6595 61.5703 39.7195C61.5539 39.7794 61.525 39.8352 61.4855 39.8832C61.446 39.9312 61.3968 39.9702 61.3411 39.9977C61.2854 40.0253 61.2245 40.0407 61.1624 40.0429C61.1003 40.0452 61.0384 40.0343 60.9809 40.0109C60.9233 39.9875 60.8714 39.9521 60.8285 39.9072C60.7856 39.8622 60.7527 39.8087 60.732 39.7501C60.4988 39.3576 60.1802 39.0227 59.7999 38.7701C59.4196 38.5176 58.9873 38.3539 58.5351 38.2913C56.9005 38.0277 53.9391 38.7131 49.1058 43.5025C42.805 49.7242 34.026 53.995 26.0204 53.995ZM20.0711 18.5892H20.0008C16.4154 18.6331 13.2694 21.6209 11.3712 26.7794C9.76156 31.3267 9.41533 36.2255 10.3694 40.954C13.6956 39.7963 16.6305 37.7291 18.8408 34.9871C22.7689 30.2593 24.711 23.7564 23.1556 20.4961C22.8959 19.9027 22.4617 19.4023 21.9107 19.0617C21.3597 18.7211 20.718 18.5562 20.0711 18.5892V18.5892Z" fill="#004646"/>
</svg>
