<svg width="18" height="14" viewBox="0 0 18 14" fill="none" xmlns="http://www.w3.org/2000/svg">
<path d="M15.7329 2.10616L16.1025 1.87516H15.6667H2.33335H1.8975L2.2671 2.10616L8.93377 6.27283L9.00002 6.31424L9.06627 6.27283L15.7329 2.10616ZM15.6667 12.1252H15.7917V12.0002V3.66683V3.4413L15.6004 3.56083L9.00002 7.68609L2.3996 3.56083L2.20835 3.4413V3.66683V12.0002V12.1252H2.33335H15.6667ZM15.6667 0.458496C16.5143 0.458496 17.2084 1.15253 17.2084 2.00016V12.0002C17.2084 12.8478 16.5143 13.5418 15.6667 13.5418H2.33335C1.48572 13.5418 0.791687 12.8478 0.791687 12.0002V2.00016C0.791687 1.15253 1.48572 0.458496 2.33335 0.458496H15.6667Z" fill="#565656" stroke="#353535" stroke-width="0.25"/>
</svg>
