<svg width="13" height="12" viewBox="0 0 13 12" fill="none" xmlns="http://www.w3.org/2000/svg">
<path d="M2.53301 8.59219L4.19985 6.92514C3.92499 6.46019 3.81258 5.91702 3.88033 5.38117C3.94808 4.84531 4.19214 4.34721 4.57408 3.9653C4.95601 3.58339 5.45413 3.33936 5.98998 3.27164C6.52584 3.20392 7.06901 3.31636 7.53394 3.59125L9.00579 2.11941C8.16913 1.68031 7.24162 1.44232 6.29691 1.42432C5.25387 1.42432 2.56632 1.79522 0.144662 5.23169C0.0501488 5.36579 -0.000397879 5.52593 2.35861e-06 5.68999C0.000402596 5.85405 0.05173 6.01394 0.146897 6.14758C0.8132 7.07915 1.61784 7.90352 2.53301 8.59219Z" fill="#8B8989"/>
<path d="M12.4473 5.22898C11.7952 4.28736 10.994 3.45831 10.0752 2.77441L8.397 4.45263C8.6728 4.91772 8.78589 5.46141 8.71841 5.9979C8.65094 6.53439 8.40675 7.03313 8.02437 7.41544C7.64199 7.79775 7.14319 8.04185 6.60669 8.10923C6.07019 8.17661 5.52653 8.06342 5.06149 7.78754L3.59229 9.25674C4.42416 9.70488 5.35226 9.94471 6.2971 9.9557C7.32389 9.9557 9.97793 9.58499 12.4445 6.15055C12.541 6.01643 12.5932 5.85547 12.5937 5.69022C12.5942 5.52497 12.543 5.36369 12.4473 5.22898Z" fill="#8B8989"/>
<path d="M0.812457 11.3775C0.772289 11.3775 0.733025 11.3656 0.699629 11.3432C0.666233 11.3209 0.640205 11.2892 0.624835 11.2521C0.609464 11.215 0.605442 11.1742 0.613276 11.1348C0.62111 11.0954 0.640449 11.0592 0.668847 11.0308L11.6376 0.0620117C11.6563 0.0426112 11.6787 0.0271367 11.7035 0.0164911C11.7283 0.0058455 11.755 0.000242038 11.7819 7.6694e-06C11.8089 -0.0002267 11.8357 0.00491267 11.8606 0.015126C11.8856 0.0253393 11.9083 0.0404219 11.9273 0.0594939C11.9464 0.0785659 11.9615 0.101245 11.9717 0.126208C11.9819 0.151172 11.9871 0.177919 11.9868 0.20489C11.9866 0.231861 11.981 0.258515 11.9703 0.283297C11.9597 0.308079 11.9442 0.330493 11.9248 0.34923L0.956066 11.318C0.917982 11.3561 0.866324 11.3775 0.812457 11.3775Z" fill="#8B8989"/>
</svg>
