<svg width="16" height="15" viewBox="0 0 16 15" fill="none" xmlns="http://www.w3.org/2000/svg">
<path fill-rule="evenodd" clip-rule="evenodd" d="M1.00615e-07 7.52832C1.55342e-07 11.5101 3.49303 14.7913 7.79897 14.7913C12.0411 14.7913 15.5369 11.5101 15.5369 7.52832C15.5369 3.48665 12.0411 0.208008 7.79897 0.208008C3.49303 0.208008 4.50636e-08 3.48665 1.00615e-07 7.52832ZM7.79897 1.2627C8.8588 1.2627 9.54687 3.42936 9.73275 4.24967L5.80137 4.24967C5.99003 3.42936 6.67532 1.2627 7.79897 1.2627ZM10.1073 7.52832C10.1073 8.23144 10.0463 8.99186 9.98245 9.69499L5.61548 9.69499C5.49063 8.99186 5.42959 8.23144 5.42959 7.52832C5.42959 6.7679 5.49063 6.06478 5.61548 5.30176L9.98245 5.30176C10.0463 6.06478 10.1073 6.7679 10.1073 7.52832ZM14.0387 5.42155C14.3494 6.06478 14.4743 6.7679 14.4743 7.53092C14.4743 8.29395 14.2884 8.93717 14.0387 9.69759L11.0423 9.69759C11.1671 8.99447 11.2282 8.23405 11.2282 7.53092C11.2282 6.77051 11.1671 6.06738 11.0423 5.30436L14.0387 5.30436L14.0387 5.42155ZM7.79897 13.7965C6.67532 13.7965 5.99003 11.57 5.80137 10.7497L9.73275 10.7497C9.54687 11.57 8.86158 13.7965 7.79897 13.7965ZM4.49183 9.69499L1.4982 9.69499L1.4982 9.5778C1.2485 8.93457 1.12365 8.23144 1.12365 7.52832C1.12365 6.70801 1.2485 6.06478 1.4982 5.30176L4.49183 5.30176C4.36698 6.06217 4.30594 6.7653 4.30594 7.52832C4.30594 8.23144 4.36698 8.99446 4.49183 9.69499ZM2.05864 10.7497L4.68049 10.7497C4.93019 11.8044 5.17989 12.5075 5.74033 13.5023C3.99243 12.859 3.11848 12.2132 2.05864 10.7497ZM10.8564 10.7497L13.4783 10.7497L13.3534 10.984C12.4184 12.2731 11.3558 12.9163 9.85761 13.5023C10.357 12.5075 10.6067 11.8044 10.8564 10.7497ZM13.4783 4.24967L10.8564 4.24967C10.6067 3.19499 10.357 2.49186 9.8576 1.55697C11.5445 2.2002 12.4795 2.78613 13.4783 4.24967ZM4.68049 4.24967L2.05864 4.24967C3.05744 2.78613 3.99243 2.2002 5.74033 1.55697C5.17989 2.43457 4.93019 3.25228 4.68049 4.24967Z" fill="white"/>
</svg>
