<svg width="14" height="18" viewBox="0 0 14 18" fill="none" xmlns="http://www.w3.org/2000/svg">
<path d="M10.1429 5.85735V4.28592C10.1404 3.45315 9.80849 2.6552 9.21962 2.06634C8.63076 1.47747 7.83281 1.14555 7.00004 1.14307C6.16726 1.14555 5.36931 1.47747 4.78045 2.06634C4.19159 2.6552 3.85966 3.45315 3.85718 4.28592V5.85735" stroke="#565656" stroke-miterlimit="10" stroke-linecap="square"/>
<path d="M11.7143 7.95264H2.28572C1.41785 7.95264 0.714294 8.65619 0.714294 9.52407V15.286C0.714294 16.1538 1.41785 16.8574 2.28572 16.8574H11.7143C12.5822 16.8574 13.2857 16.1538 13.2857 15.286V9.52407C13.2857 8.65619 12.5822 7.95264 11.7143 7.95264Z" stroke="#565656" stroke-miterlimit="10" stroke-linecap="square"/>
<path d="M7 13.1909V14.7623" stroke="#565656" stroke-miterlimit="10" stroke-linecap="square"/>
<path d="M7.00002 13.1907C7.86789 13.1907 8.57145 12.4872 8.57145 11.6193C8.57145 10.7514 7.86789 10.0479 7.00002 10.0479C6.13214 10.0479 5.42859 10.7514 5.42859 11.6193C5.42859 12.4872 6.13214 13.1907 7.00002 13.1907Z" stroke="#565656" stroke-miterlimit="10" stroke-linecap="square"/>
</svg>
